<svg xmlns="http://www.w3.org/2000/svg" xmlns:svg="http://www.w3.org/2000/svg" xmlns:xlink="http://www.w3.org/1999/xlink" id="svg3771" width="16" height="16" version="1.1" viewBox="0 0 16 16"><defs id="defs3773"><linearGradient id="linearGradient5575" x1="-1483.396" x2="-1155.767" y1="1056.787" y2="1056.787" gradientUnits="userSpaceOnUse" xlink:href="#linearGradient5569"/><linearGradient id="linearGradient5569"><stop style="stop-color:#fcd635;stop-opacity:1" id="stop5571" offset="0"/><stop style="stop-color:#f7a928;stop-opacity:1" id="stop5573" offset="1"/></linearGradient></defs><g id="layer1" transform="translate(0,-1036.3622)"><path style="color:#000;display:inline;overflow:visible;visibility:visible;opacity:1;fill:url(#linearGradient5575);fill-opacity:1;stroke:none;stroke-width:21.89333725;stroke-linecap:square;stroke-linejoin:round;stroke-miterlimit:4;stroke-dasharray:none;stroke-dashoffset:0;stroke-opacity:1;marker:none;enable-background:accumulate" id="path4512-3" d="m -1220,1212.3622 c -11.656,8.3257 -86.4464,-44.4525 -100.7701,-44.5681 -14.3237,-0.1155 -89.9559,51.4489 -101.4761,42.9361 -11.5202,-8.5127 15.5634,-95.9519 11.2471,-109.6103 -4.3164,-13.6584 -76.7287,-69.6546 -72.1925,-83.2416 4.5362,-13.5869 96.0651,-14.8491 107.7211,-23.17482 11.656,-8.32575 42.535,-94.49779 56.8587,-94.38221 14.3237,0.11559 43.8081,86.77471 55.3283,95.28747 11.5202,8.51276 103.0168,11.25186 107.3331,24.91016 4.3164,13.6584 -68.9902,68.4788 -73.5264,82.0658 -4.5362,13.5869 21.1328,101.4517 9.4768,109.7775 z" transform="matrix(0.04573926,0,0,0.04561282,68.849439,996.02231)"/></g><metadata/></svg>