<svg xmlns="http://www.w3.org/2000/svg" xmlns:xlink="http://www.w3.org/1999/xlink" viewBox="0 0 128 128"><defs><style>.cls-1,.cls-4,.cls-5{fill:none}.cls-2{fill:#7ad0cb}.cls-3{clip-path:url(#clip-path)}.cls-4,.cls-5{stroke:#4dbab4;stroke-width:8px}.cls-4{stroke-miterlimit:10}.cls-5{stroke-linejoin:round}.cls-6{fill:#1fa49c}.cls-7{fill:#c3edf5}</style><clipPath id="clip-path"><circle cx="63" cy="63" r="48" class="cls-1" style="fill:none"/></clipPath></defs><title>08 Web Development</title><g id="_08_Web_Development" data-name="08 Web Development"><circle cx="63" cy="63" r="48" class="cls-2" style="fill:#7ad0cb"/><g class="cls-3" style="clip-path:url(#clip-path)"><line x1="108" x2="18" y1="81" y2="81" class="cls-4" style="fill:none;stroke:#4dbab4;stroke-width:8px;stroke-miterlimit:10"/><line x1="108" x2="18" y1="45" y2="45" class="cls-4" style="fill:none;stroke:#4dbab4;stroke-width:8px;stroke-miterlimit:10"/><path d="M63,15a67.88,67.88,0,0,0,0,96A67.88,67.88,0,0,0,63,15Z" class="cls-5" style="fill:none;stroke:#4dbab4;stroke-width:8px;stroke-linejoin:round"/><path d="M113.41,72.14l6.41-6-6.49-11.25-8.41,2.54-8.42-4.86-2-8.56h-13l-2,8.56-8.42,4.86-8.41-2.54L56.16,66.12l6.41,6v9.73l-6.41,6,6.49,11.25,8.41-2.54,8.42,4.86,2,8.56h13l2-8.56,8.42-4.86,8.41,2.54,6.49-11.25-6.41-6ZM88,86.65A9.65,9.65,0,1,1,97.64,77,9.65,9.65,0,0,1,88,86.65Z" class="cls-6" style="fill:#1fa49c"/></g><path d="M106.59,75.14l6.41-6-6.49-11.25L98.1,60.42l-8.42-4.86-2-8.56h-13l-2,8.56-8.42,4.86-8.41-2.54L49.35,69.12l6.41,6v9.73l-6.41,6,6.49,11.25,8.41-2.54,8.42,4.86,2,8.56h13l2-8.56,8.42-4.86,8.41,2.54L113,90.88l-6.41-6ZM81.17,89.65A9.65,9.65,0,1,1,90.82,80,9.65,9.65,0,0,1,81.17,89.65Z" class="cls-7" style="fill:#c3edf5"/></g><metadata><rdf:RDF xmlns:dc="http://purl.org/dc/elements/1.1/" xmlns:rdf="http://www.w3.org/1999/02/22-rdf-syntax-ns#" xmlns:rdfs="http://www.w3.org/2000/01/rdf-schema#"><rdf:Description about="https://iconscout.com/legal#licenses" dc:date="2016-12-14" dc:description="Web, Development, Setting, World" dc:format="image/svg+xml" dc:language="en" dc:publisher="Iconscout" dc:title="Web, Development, Setting, World"><dc:creator><rdf:Bag><rdf:li>Inipagi Studio</rdf:li></rdf:Bag></dc:creator></rdf:Description></rdf:RDF></metadata></svg>